<svg height='300px' width='300px'  fill="#000000" xmlns="http://www.w3.org/2000/svg" xmlns:xlink="http://www.w3.org/1999/xlink" version="1.1" x="0px" y="0px" viewBox="0 0 100 100" enable-background="new 0 0 100 100" xml:space="preserve"><path d="M75.81,24.19C68.916,17.296,59.75,13.5,50,13.5c-9.749,0-18.915,3.796-25.809,10.69C17.297,31.083,13.5,40.25,13.5,49.999  c0,9.75,3.797,18.915,10.69,25.809C31.085,82.702,40.25,86.5,50,86.5s18.916-3.798,25.81-10.692  c6.894-6.894,10.69-16.06,10.69-25.809C86.5,40.25,82.703,31.084,75.81,24.19z M69.971,29.673L29.675,69.97  C24.404,64.607,21.5,57.527,21.5,49.999c0-7.612,2.965-14.77,8.348-20.152C35.23,24.464,42.388,21.5,50,21.5  C57.529,21.5,64.608,24.403,69.971,29.673z"></path></svg>